<svg width="720" height="900" viewBox="0 0 720 900" fill="none" xmlns="http://www.w3.org/2000/svg">
<rect width="720" height="900" fill="#69ADF8"/>
<path d="M-2 0H518C518 0 571 185 343 172C115 159 -2 285 -2 285V0Z" fill="#519DF1"/>
<path d="M-2 0H518C518 0 571 185 343 172C115 159 -2 285 -2 285V0Z" fill="#519DF1"/>
<path d="M720 900H200C200 900 147 715 375 728C603 741 720 615 720 615V900Z" fill="#519DF1"/>
<path d="M720 900H200C200 900 147 715 375 728C603 741 720 615 720 615V900Z" fill="#519DF1"/>
</svg>
